PathFileType	4	(X/Y/Z)	C:/Users/opensim2020/Desktop/walking_exp_matlab/subject02_walking07_straight_02.trc	
DataRate	CameraRate	NumFrames	NumMarkers	Units	OrigDataRate	OrigDataStartFrame	OrigNumFrames	
100.00	100.00	7	50	mm	100.00	1488	210	
Frame#	Time	LFHD			RFHD			LBHD			RBHD			C7			T10			CLAV			STRN			RBAK			LSHO			LUPA			LELB			LFRM			LWRA			LWRB			LFIN			RSHO			RUPA			RELB			RFRM			RWRA			RWRB			RFIN			LASI			RASI			LPSI			RPSI			LTHI			LKNE			LTIB			LANK			LHEE			LTOE			RTHI			RKNE			RTIB			RANK			RHEE			RTOE			*39			*40			*41			*42			*43			*44			*45			*46			*47			*48			*49			
		X1	Y1	Z1	X2	Y2	Z2	X3	Y3	Z3	X4	Y4	Z4	X5	Y5	Z5	X6	Y6	Z6	X7	Y7	Z7	X8	Y8	Z8	X9	Y9	Z9	X10	Y10	Z10	X11	Y11	Z11	X12	Y12	Z12	X13	Y13	Z13	X14	Y14	Z14	X15	Y15	Z15	X16	Y16	Z16	X17	Y17	Z17	X18	Y18	Z18	X19	Y19	Z19	X20	Y20	Z20	X21	Y21	Z21	X22	Y22	Z22	X23	Y23	Z23	X24	Y24	Z24	X25	Y25	Z25	X26	Y26	Z26	X27	Y27	Z27	X28	Y28	Z28	X29	Y29	Z29	X30	Y30	Z30	X31	Y31	Z31	X32	Y32	Z32	X33	Y33	Z33	X34	Y34	Z34	X35	Y35	Z35	X36	Y36	Z36	X37	Y37	Z37	X38	Y38	Z38	X39	Y39	Z39	X40	Y40	Z40	X41	Y41	Z41	X42	Y42	Z42	X43	Y43	Z43	X44	Y44	Z44	X45	Y45	Z45	X46	Y46	Z46	X47	Y47	Z47	X48	Y48	Z48	X49	Y49	Z49	X50	Y50	Z50	

158	1.570	-882.63226	-691.09540	1721.29639	-1025.78589	-690.25464	1711.99487	-879.15875	-553.65564	1660.18408	-1022.24170	-540.43433	1650.44800	-964.82715	-494.82782	1512.60034	-977.87134	-466.11584	1231.48816	-949.17743	-640.42468	1457.27136	-971.75085	-710.17633	1293.62097	-1041.08154	-453.77176	1335.14478	-783.73523	-552.70282	1478.73682	-708.14838	-539.84210	1275.48999	-699.73126	-540.66467	1135.03931	-683.09485	-554.66211	1004.75183	-699.27258	-621.45245	881.77747	-677.22766	-569.28278	882.90613	-667.04846	-589.43219	820.53656	-1148.10400	-581.03119	1498.65112	-1239.87476	-592.54034	1307.16052	-1260.43274	-641.45123	1168.07654	-1277.06689	-705.14813	1065.02588	-1251.90759	-785.78717	957.04358	-1291.52368	-747.87744	942.75970	-1286.21167	-800.92926	891.72028	-854.92542	-732.11047	994.92181	-1106.50378	-703.97845	967.27209	-910.26196	-512.28601	1023.11047	-1024.79834	-495.47064	1017.30475	-797.22620	-710.73022	680.13239	-834.51294	-697.99420	475.60391	-840.42883	-655.47913	283.79587	-888.28186	-668.00006	65.35505	-942.66412	-634.35284	38.73664	-874.66937	-824.53412	29.82401	-1186.70471	-598.49524	664.51752	-1188.95801	-592.86627	464.94662	-1176.73022	-444.45749	356.96103	-1129.31982	-308.28021	225.25302	-1060.01965	-265.26007	203.56850	-1166.17065	-356.99307	73.09486	-967.57202	-597.02722	1802.23694																														 
159	1.580	-881.06116	-699.64240	1722.60046	-1024.44934	-699.07532	1713.22876	-877.96136	-562.66742	1661.48206	-1020.95868	-549.32385	1651.67395	-963.11914	-503.70874	1513.79846	-975.22363	-474.70715	1232.75940	-948.08478	-649.03326	1458.36462	-970.48358	-718.47034	1294.48035	-1037.82373	-462.18991	1336.22925	-782.24109	-562.33002	1480.43225	-705.83911	-552.66919	1276.92297	-696.32440	-555.26398	1136.56323	-680.11230	-573.61865	1006.51251	-697.18817	-643.50549	886.01453	-674.93994	-591.40833	885.04980	-664.50226	-614.80597	823.81720	-1146.83679	-588.75732	1499.31201	-1237.72937	-599.24603	1307.44519	-1258.42212	-647.80157	1168.19482	-1275.53271	-710.01105	1064.43054	-1250.50940	-788.91754	955.01697	-1290.31750	-751.15863	941.53632	-1284.75037	-802.97839	889.29102	-853.02350	-741.32910	994.80994	-1105.79431	-711.19910	968.72687	-907.75195	-520.37280	1024.50464	-1021.94373	-503.05600	1018.57971	-796.42761	-715.77020	680.17163	-833.73633	-700.40448	475.41138	-840.09564	-656.55566	283.98141	-888.31085	-667.95685	65.37005	-942.66241	-634.31494	38.80108	-874.70404	-824.44049	29.76931	-1186.66028	-612.13300	666.15112	-1189.04285	-610.48230	467.14258	-1175.55139	-462.06329	358.86105	-1127.62976	-326.76297	226.40268	-1058.05017	-284.64746	202.60056	-1170.26599	-376.37451	76.71012	-966.16614	-605.81525	1803.50562																														 
160	1.590	-879.93335	-708.64270	1723.51440	-1023.15192	-708.09033	1714.14978	-876.56897	-571.24481	1662.33887	-1019.77374	-558.10278	1652.84912	-961.54993	-512.44470	1515.15027	-972.57104	-483.16205	1233.98108	-947.02924	-657.63904	1459.34839	-969.26642	-726.67609	1295.21973	-1035.21179	-470.25095	1337.31470	-780.69592	-571.92157	1482.18152	-703.31696	-563.93268	1278.88049	-692.75568	-569.68274	1138.25037	-677.12994	-592.52863	1008.49500	-695.37854	-665.24261	890.49927	-672.57416	-613.80200	887.77942	-662.21027	-639.46057	827.77887	-1145.64282	-596.72504	1499.69849	-1236.10449	-605.75098	1307.67444	-1256.76343	-653.97363	1168.26111	-1274.21802	-714.87408	1063.87817	-1249.36780	-792.25519	953.18475	-1289.52673	-754.20593	940.54468	-1283.62585	-805.10211	886.99756	-852.41687	-748.29889	993.72961	-1104.98352	-719.43134	970.52625	-905.43231	-528.30310	1025.78845	-1019.31372	-510.69028	1019.79846	-795.37659	-720.02570	679.67224	-833.04382	-702.44379	475.33069	-840.04041	-656.95880	284.29950	-888.44769	-667.91522	65.41859	-943.01019	-633.94489	38.51999	-874.70020	-824.42957	29.75842	-1186.71423	-625.87262	667.80621	-1189.39636	-627.72119	468.90921	-1174.31262	-479.65479	360.42627	-1126.16162	-346.01022	226.54532	-1056.42957	-304.70328	200.51663	-1173.90491	-397.19461	79.55360	-965.08844	-614.87311	1804.77173																														 
161	1.600	-878.80750	-717.46240	1724.70508	-1021.98022	-716.83032	1715.30286	-876.21570	-579.59082	1663.87598	-1018.64337	-566.91028	1653.75867	-960.14410	-521.06409	1516.68726	-970.02338	-491.51239	1235.23279	-945.94995	-666.21326	1460.29932	-968.00977	-734.83984	1295.88794	-1033.23901	-478.03165	1338.56396	-779.25482	-581.57056	1483.92249	-700.97522	-576.29517	1280.71240	-689.46686	-584.35236	1140.16895	-674.52637	-611.05859	1010.77930	-693.58203	-687.34204	895.57959	-670.40784	-636.38165	890.83429	-659.95233	-664.20215	832.05267	-1144.33081	-604.57898	1500.18164	-1234.29419	-612.30640	1307.77698	-1255.43469	-659.94775	1168.29382	-1272.92993	-719.43927	1063.26843	-1248.55396	-795.63501	951.42590	-1288.76697	-757.42401	939.51813	-1282.79810	-807.31287	884.88782	-850.95453	-755.99219	993.27100	-1103.94434	-726.94080	972.12262	-903.45374	-535.98907	1026.99585	-1017.15143	-518.21741	1021.15466	-794.30182	-724.39014	679.36139	-832.31598	-704.10260	475.21902	-840.16986	-656.90051	284.63611	-888.59125	-667.90009	65.48566	-943.04980	-633.93921	38.53189	-874.64948	-824.42493	29.69040	-1186.85059	-639.63831	669.44812	-1189.14917	-644.41064	470.77023	-1173.12305	-497.37009	361.45520	-1124.88257	-366.01578	225.61490	-1055.23828	-325.31241	197.36382	-1177.22998	-419.23782	81.46503	-963.84058	-623.51013	1805.71191																														 
162	1.610	-877.68268	-726.57233	1725.44775	-1020.92340	-725.68573	1716.14429	-874.72406	-588.77374	1664.53894	-1017.51416	-575.70636	1654.71716	-958.47302	-529.68512	1517.68188	-967.54291	-499.73618	1236.46252	-945.10345	-674.24683	1460.90881	-966.67218	-742.89606	1296.43420	-1030.83691	-485.92245	1339.66125	-777.84967	-591.15741	1485.64551	-698.61548	-588.37982	1282.84253	-686.32513	-598.72699	1142.22791	-671.80493	-629.42847	1013.72827	-692.00446	-708.98816	901.16309	-668.30518	-657.99786	894.30676	-657.97998	-688.95496	836.72601	-1143.10718	-612.59308	1500.43738	-1232.22437	-618.96216	1307.87476	-1253.94336	-665.81848	1168.28918	-1271.73816	-724.38885	1062.74658	-1247.92834	-799.35254	950.01062	-1288.17883	-760.59839	938.58197	-1282.25818	-809.52747	883.06714	-849.35785	-763.35791	993.02911	-1102.65503	-734.63647	973.81866	-901.69196	-543.50909	1027.96838	-1015.37000	-525.82709	1022.45685	-793.13757	-728.65247	678.94757	-831.69818	-705.58862	475.16418	-840.43323	-656.67163	285.01837	-888.70831	-667.90649	65.53721	-943.11572	-633.95117	38.62703	-874.55328	-824.39856	29.64446	-1187.01160	-653.28943	671.03815	-1189.07861	-661.08594	472.78461	-1171.97180	-515.44867	361.92087	-1123.88330	-386.36456	223.53687	-1054.38477	-346.38297	193.54166	-1179.88062	-441.96194	82.24435	-962.82996	-632.57068	1806.84802	-3356.54126	2846.24976	1033.96118																											 
163	1.620	-876.78607	-735.11737	1726.45911	-1019.90869	-734.54266	1716.85437	-873.90137	-597.47357	1665.67346	-1016.52557	-584.60461	1655.74377	-956.92877	-538.25592	1518.83411	-965.10175	-507.79150	1237.63269	-944.07611	-682.77081	1461.70386	-965.30640	-750.97797	1297.07446	-1027.85352	-494.04279	1340.71228	-776.48755	-600.76001	1487.40820	-696.34393	-599.84125	1285.01428	-682.91418	-613.18713	1144.55640	-669.28259	-647.06213	1016.64490	-690.46808	-730.48505	906.97656	-666.31207	-679.95697	898.32068	-656.14136	-713.12677	842.09839	-1141.80603	-620.44513	1500.84912	-1230.80908	-625.38623	1308.01074	-1252.37988	-671.60284	1168.31042	-1270.88708	-728.96497	1062.37341	-1247.45715	-802.31537	948.30658	-1287.69348	-763.57660	937.73193	-1281.98145	-811.73065	881.47192	-847.53442	-770.55621	993.05573	-1101.00342	-742.53021	975.54761	-900.25256	-550.82629	1028.75330	-1014.00476	-533.47943	1023.51508	-792.09961	-732.45441	678.39532	-831.09442	-707.11536	475.07968	-840.73016	-656.59149	285.31650	-888.86432	-667.76331	65.49374	-943.31940	-634.25677	38.73605	-874.46460	-824.34863	29.60265	-1186.99475	-667.02069	672.76196	-1188.90967	-677.38629	475.03452	-1171.01550	-533.71429	361.71854	-1123.24121	-407.40491	220.81459	-1053.26917	-368.30847	188.90155	-1182.26526	-465.46515	82.30996	-962.02124	-641.57678	1807.70935																														 
164	1.630	-875.69342	-744.16534	1727.10059	-1018.98132	-743.38641	1717.40100	-872.89429	-606.14728	1666.46216	-1015.67584	-593.14014	1656.64954	-955.43262	-546.71521	1519.84692	-962.73962	-515.73755	1238.71204	-943.08740	-691.11115	1462.36951	-964.00635	-758.85706	1297.51074	-1026.03955	-501.70810	1341.65796	-775.22723	-610.30530	1489.16467	-694.06519	-612.04333	1287.38074	-680.06549	-627.14246	1147.00671	-666.67303	-665.28284	1019.94946	-689.11292	-751.69440	913.16986	-664.37744	-702.05487	902.83417	-654.32721	-736.80743	847.88403	-1140.50378	-628.40656	1500.99036	-1228.78528	-631.89868	1307.95862	-1251.30579	-677.13037	1168.32678	-1269.82166	-733.20642	1061.71118	-1247.28723	-805.78088	947.00867	-1287.43250	-766.74731	936.94342	-1282.02454	-814.15009	880.03973	-845.54315	-777.41205	993.34857	-1099.09412	-750.57391	977.14722	-899.16736	-557.98352	1029.25720	-1013.00085	-541.19391	1024.36365	-791.23926	-736.12476	677.93317	-830.62549	-708.79559	475.00168	-840.79266	-656.99347	285.56204	-889.00177	-667.74854	65.54202	-943.64996	-634.66455	38.69611	-874.40186	-824.26691	29.59608	-1187.01880	-680.31439	674.48718	-1188.49646	-693.43951	476.67422	-1170.23083	-552.16760	360.96744	-1122.77869	-428.97266	217.06378	-1053.25354	-391.09393	183.34393	-1184.34631	-490.25134	81.49214	-961.11151	-650.55762	1808.57922	-3355.39453	2846.60547	1033.76477																											 
